<?xml version="1.0" encoding="utf-8"?><!-- Uploaded to: SVG Repo, www.svgrepo.com, Generator: SVG Repo Mixer Tools -->
<svg fill="#000000" width="800px" height="800px" viewBox="0 0 24 24" id="invoice-dollar" data-name="Line Color" xmlns="http://www.w3.org/2000/svg" class="icon line-color"><path id="secondary" d="M20,7H17.5A1.5,1.5,0,0,0,16,8.5h0A1.5,1.5,0,0,0,17.5,10h1A1.5,1.5,0,0,1,20,11.5h0A1.5,1.5,0,0,1,18.5,13H16" style="fill: none; stroke: rgb(44, 169, 188); stroke-linecap: round; stroke-linejoin: round; stroke-width: 2;"></path><path id="secondary-2" data-name="secondary" d="M14,17H8m0-4h4m6-6V6m0,8V13" style="fill: none; stroke: rgb(44, 169, 188); stroke-linecap: round; stroke-linejoin: round; stroke-width: 2;"></path><path id="primary" d="M18,18v2a1,1,0,0,1-1,1H5a1,1,0,0,1-1-1V4A1,1,0,0,1,5,3H15" style="fill: none; stroke: rgb(0, 0, 0); stroke-linecap: round; stroke-linejoin: round; stroke-width: 2;"></path></svg>